<?xml version="1.0" encoding="iso-8859-1"?>
<!-- Generator: Adobe Illustrator 16.0.0, SVG Export Plug-In . SVG Version: 6.00 Build 0)  -->
<!DOCTYPE svg PUBLIC "-//W3C//DTD SVG 1.1//EN" "http://www.w3.org/Graphics/SVG/1.1/DTD/svg11.dtd">
<svg version="1.1" id="Layer_1" xmlns="http://www.w3.org/2000/svg" xmlns:xlink="http://www.w3.org/1999/xlink" x="0px" y="0px"
	 width="300px" height="100px" viewBox="0 0 300 100" style="enable-background:new 0 0 300 100;" xml:space="preserve">
<g>
	<rect x="119.063" y="68.825" style="fill:#58595B;" width="1.141" height="9.869"/>
	<path style="fill:#58595B;" d="M121.399,71.647h1.134v7.047h-1.134V71.647z M124.567,73.76c0-0.395-0.083-0.688-0.251-0.883
		c-0.167-0.194-0.424-0.293-0.767-0.293c-0.34,0-0.594,0.105-0.763,0.313c-0.17,0.209-0.256,0.524-0.256,0.951l-0.142-1.014
		c0.158-0.438,0.377-0.766,0.658-0.984c0.28-0.218,0.607-0.324,0.984-0.324c0.552,0,0.968,0.174,1.25,0.519
		c0.279,0.345,0.42,0.855,0.42,1.53v5.119h-1.135V73.76z"/>
	<path style="fill:#58595B;" d="M126.358,71.647h3.041v1.065h-3.041V71.647z M127.483,78.256c-0.265-0.316-0.397-0.779-0.397-1.396
		v-7.262h1.135v7.271c0,0.253,0.055,0.449,0.165,0.586c0.111,0.139,0.274,0.208,0.492,0.208h0.523v1.065h-0.666
		C128.164,78.728,127.748,78.57,127.483,78.256"/>
	<path style="fill:#58595B;" d="M131.114,78.52c-0.319-0.183-0.563-0.45-0.734-0.8c-0.168-0.352-0.254-0.773-0.254-1.267v-2.449
		c0-0.522,0.083-0.968,0.247-1.339c0.165-0.371,0.404-0.653,0.717-0.848c0.312-0.193,0.689-0.291,1.127-0.291
		c0.448,0,0.828,0.091,1.145,0.267c0.313,0.181,0.554,0.441,0.719,0.781c0.165,0.343,0.247,0.757,0.247,1.245v1.798h-3.447v-0.98
		h2.341v-0.788c0-0.407-0.087-0.724-0.26-0.948c-0.176-0.223-0.423-0.336-0.744-0.336c-0.313,0-0.555,0.12-0.726,0.356
		c-0.172,0.238-0.258,0.573-0.258,1.006v2.561c0,0.395,0.09,0.701,0.271,0.918c0.182,0.222,0.438,0.331,0.767,0.331
		c0.308,0,0.549-0.084,0.72-0.253c0.173-0.171,0.255-0.409,0.252-0.717v-0.048l1.105,0.007v0.041c0,0.647-0.181,1.145-0.543,1.499
		c-0.361,0.352-0.873,0.529-1.534,0.529C131.818,78.795,131.433,78.704,131.114,78.52"/>
	<path style="fill:#58595B;" d="M135.413,71.647h1.134v7.047h-1.134V71.647z M138.611,72.625h-0.038h-0.078
		c-0.598,0-1.064,0.144-1.404,0.428c-0.34,0.285-0.521,0.681-0.544,1.188l-0.142-1.364c0.244-0.425,0.56-0.758,0.95-0.994
		c0.389-0.237,0.816-0.356,1.282-0.356v1.099H138.611z"/>
	<path style="fill:#58595B;" d="M139.466,71.647h1.134v7.047h-1.134V71.647z M142.635,73.76c0-0.395-0.084-0.688-0.252-0.883
		c-0.166-0.194-0.422-0.293-0.766-0.293c-0.339,0-0.594,0.105-0.764,0.313c-0.169,0.209-0.255,0.524-0.255,0.951l-0.143-1.014
		c0.159-0.438,0.379-0.766,0.658-0.984c0.281-0.218,0.608-0.324,0.985-0.324c0.551,0,0.969,0.174,1.249,0.519
		c0.281,0.345,0.42,0.855,0.42,1.53v5.119h-1.134V73.76z"/>
	<path style="fill:#58595B;" d="M145.316,78.302c-0.299-0.325-0.448-0.821-0.448-1.482c0-0.79,0.182-1.384,0.543-1.773
		c0.361-0.391,0.904-0.587,1.629-0.587h1.086l0.095,0.929h-1.175c-0.371,0-0.648,0.119-0.835,0.356
		c-0.185,0.237-0.278,0.597-0.278,1.075c0,0.353,0.084,0.615,0.248,0.785c0.166,0.171,0.416,0.254,0.75,0.254
		c0.38,0,0.664-0.103,0.853-0.306c0.188-0.204,0.282-0.511,0.282-0.922l0.142,0.617c-0.006,0.343-0.065,0.629-0.181,0.862
		c-0.114,0.229-0.285,0.402-0.512,0.514c-0.227,0.113-0.512,0.171-0.854,0.171C146.063,78.795,145.614,78.633,145.316,78.302
		 M148.065,73.534c0-0.33-0.091-0.584-0.273-0.766c-0.18-0.183-0.436-0.271-0.766-0.271c-0.289,0-0.517,0.088-0.679,0.271
		c-0.163,0.182-0.242,0.438-0.238,0.772l-1.1-0.007c0-0.637,0.179-1.133,0.537-1.482c0.356-0.352,0.861-0.525,1.514-0.525
		c0.439,0,0.814,0.078,1.127,0.236c0.312,0.157,0.549,0.388,0.712,0.687c0.162,0.298,0.244,0.661,0.244,1.085v5.16h-1.078V73.534z"
		/>
	<path style="fill:#58595B;" d="M149.802,71.647h3.04v1.065h-3.04V71.647z M150.925,78.256c-0.265-0.316-0.397-0.779-0.397-1.396
		v-7.262h1.136v7.271c0,0.253,0.055,0.449,0.164,0.586c0.112,0.139,0.274,0.208,0.493,0.208h0.522v1.065h-0.666
		C151.606,78.728,151.189,78.57,150.925,78.256"/>
	<path style="fill:#58595B;" d="M153.765,69.062h1.142v1.133h-1.142V69.062z M153.765,71.647h1.142v7.047h-1.142V71.647z"/>
	<path style="fill:#58595B;" d="M156.966,78.555c-0.305-0.162-0.538-0.396-0.696-0.703c-0.158-0.31-0.236-0.676-0.236-1.105v-3.205
		c0-0.423,0.078-0.787,0.236-1.089c0.158-0.299,0.392-0.532,0.696-0.689c0.306-0.158,0.671-0.236,1.096-0.236
		c0.427,0,0.789,0.078,1.091,0.236c0.3,0.157,0.529,0.391,0.688,0.689c0.158,0.302,0.237,0.666,0.237,1.089v3.226
		c0,0.424-0.079,0.791-0.237,1.095c-0.158,0.307-0.388,0.538-0.688,0.697c-0.302,0.157-0.664,0.236-1.091,0.236
		C157.637,78.795,157.271,78.714,156.966,78.555 M158.71,77.459c0.155-0.168,0.235-0.405,0.235-0.713v-3.185
		c0-0.298-0.081-0.529-0.238-0.698c-0.158-0.167-0.378-0.25-0.659-0.25c-0.275,0-0.49,0.083-0.646,0.25
		c-0.158,0.169-0.235,0.4-0.235,0.698v3.185c0,0.308,0.076,0.545,0.231,0.713c0.153,0.168,0.37,0.249,0.65,0.249
		C158.334,77.708,158.555,77.627,158.71,77.459"/>
	<path style="fill:#58595B;" d="M161.145,71.647h1.133v7.047h-1.133V71.647z M164.313,73.76c0-0.395-0.083-0.688-0.252-0.883
		c-0.167-0.194-0.423-0.293-0.766-0.293c-0.34,0-0.594,0.105-0.764,0.313c-0.17,0.209-0.254,0.524-0.254,0.951l-0.144-1.014
		c0.158-0.438,0.378-0.766,0.658-0.984c0.28-0.218,0.608-0.324,0.984-0.324c0.553,0,0.97,0.174,1.25,0.519s0.422,0.855,0.422,1.53
		v5.119h-1.136V73.76z"/>
	<path style="fill:#58595B;" d="M166.995,78.302c-0.3-0.325-0.448-0.821-0.448-1.482c0-0.79,0.18-1.384,0.541-1.773
		c0.361-0.391,0.904-0.587,1.63-0.587h1.085l0.097,0.929h-1.177c-0.368,0-0.648,0.119-0.833,0.356
		c-0.187,0.237-0.279,0.597-0.279,1.075c0,0.353,0.083,0.615,0.248,0.785c0.166,0.171,0.415,0.254,0.749,0.254
		c0.381,0,0.666-0.103,0.854-0.306c0.187-0.204,0.282-0.511,0.282-0.922l0.141,0.617c-0.005,0.343-0.064,0.629-0.179,0.862
		c-0.115,0.229-0.286,0.402-0.513,0.514c-0.225,0.113-0.512,0.171-0.855,0.171C167.742,78.795,167.291,78.633,166.995,78.302
		 M169.743,73.534c0-0.33-0.091-0.584-0.273-0.766c-0.179-0.183-0.436-0.271-0.766-0.271c-0.289,0-0.516,0.088-0.678,0.271
		c-0.166,0.182-0.242,0.438-0.24,0.772l-1.099-0.007c0-0.637,0.181-1.133,0.537-1.482c0.356-0.352,0.861-0.525,1.513-0.525
		c0.44,0,0.813,0.078,1.128,0.236c0.312,0.157,0.548,0.388,0.712,0.687c0.162,0.298,0.243,0.661,0.243,1.085v5.16h-1.077V73.534z"/>
	<path style="fill:#58595B;" d="M173.157,76.834c0,0.254,0.056,0.45,0.165,0.587c0.11,0.139,0.269,0.208,0.472,0.208h0.422v1.065
		h-0.544c-0.523,0-0.931-0.165-1.219-0.488c-0.287-0.326-0.431-0.785-0.431-1.379v-8.002h1.135V76.834z"/>
	<path style="fill:#58595B;" d="M178.438,78.496c-0.345-0.199-0.606-0.487-0.788-0.864c-0.18-0.379-0.271-0.831-0.271-1.362v-5.014
		c0-0.534,0.091-0.992,0.271-1.368c0.182-0.378,0.443-0.668,0.785-0.867c0.34-0.197,0.752-0.297,1.238-0.297
		c0.483,0,0.897,0.1,1.242,0.297c0.343,0.199,0.604,0.489,0.783,0.867c0.18,0.376,0.269,0.831,0.269,1.359v0.394h-1.141v-0.394
		c0-0.299-0.046-0.555-0.136-0.771c-0.091-0.213-0.223-0.376-0.394-0.488c-0.172-0.11-0.38-0.168-0.624-0.168
		c-0.245,0-0.453,0.058-0.625,0.168c-0.173,0.112-0.303,0.275-0.393,0.488c-0.091,0.216-0.137,0.475-0.137,0.779v5.014
		c0,0.299,0.046,0.555,0.137,0.772c0.09,0.213,0.22,0.377,0.393,0.486c0.172,0.112,0.38,0.168,0.625,0.168
		c0.249,0,0.457-0.056,0.627-0.168c0.17-0.109,0.3-0.271,0.391-0.483c0.09-0.213,0.136-0.472,0.136-0.775v-0.394h1.141v0.394
		c0,0.531-0.089,0.983-0.269,1.362c-0.18,0.377-0.44,0.665-0.783,0.864c-0.345,0.201-0.759,0.299-1.242,0.299
		C179.191,78.795,178.779,78.697,178.438,78.496"/>
	<path style="fill:#58595B;" d="M183.763,78.555c-0.307-0.162-0.539-0.396-0.697-0.703c-0.158-0.31-0.237-0.676-0.237-1.105v-3.205
		c0-0.423,0.079-0.787,0.237-1.089c0.158-0.299,0.391-0.532,0.697-0.689c0.304-0.158,0.669-0.236,1.094-0.236
		c0.426,0,0.79,0.078,1.092,0.236c0.299,0.157,0.529,0.391,0.688,0.689c0.157,0.302,0.237,0.666,0.237,1.089v3.226
		c0,0.424-0.08,0.791-0.237,1.095c-0.158,0.307-0.389,0.538-0.688,0.697c-0.302,0.157-0.666,0.236-1.092,0.236
		C184.432,78.795,184.066,78.714,183.763,78.555 M185.505,77.459c0.156-0.168,0.235-0.405,0.235-0.713v-3.185
		c0-0.298-0.079-0.529-0.237-0.698c-0.158-0.167-0.378-0.25-0.658-0.25c-0.276,0-0.491,0.083-0.649,0.25
		c-0.155,0.169-0.235,0.4-0.235,0.698v3.185c0,0.308,0.078,0.545,0.233,0.713c0.152,0.168,0.37,0.249,0.651,0.249
		C185.13,77.708,185.35,77.627,185.505,77.459"/>
	<path style="fill:#58595B;" d="M187.94,71.647h1.133v7.047h-1.133V71.647z M191.107,73.76c0-0.395-0.083-0.688-0.251-0.883
		c-0.167-0.194-0.424-0.293-0.767-0.293c-0.34,0-0.594,0.105-0.763,0.313c-0.171,0.209-0.254,0.524-0.254,0.951l-0.144-1.014
		c0.157-0.438,0.378-0.766,0.658-0.984c0.28-0.218,0.608-0.324,0.983-0.324c0.553,0,0.971,0.174,1.251,0.519
		c0.279,0.345,0.421,0.855,0.421,1.53v5.119h-1.136V73.76z"/>
	<path style="fill:#58595B;" d="M192.899,71.647h3.251v1.032h-3.251V71.647z M193.619,70.692c0-0.604,0.149-1.063,0.448-1.386
		c0.299-0.321,0.735-0.481,1.31-0.481h0.773v1.064h-0.739c-0.213,0-0.377,0.069-0.488,0.211c-0.113,0.142-0.171,0.335-0.171,0.582
		v8.009h-1.133V70.692z"/>
	<path style="fill:#58595B;" d="M197.321,78.52c-0.318-0.183-0.563-0.45-0.732-0.8c-0.17-0.352-0.257-0.773-0.257-1.267v-2.449
		c0-0.522,0.085-0.968,0.249-1.339c0.166-0.371,0.405-0.653,0.717-0.848c0.311-0.193,0.689-0.291,1.127-0.291
		c0.448,0,0.829,0.091,1.145,0.267c0.314,0.181,0.553,0.441,0.719,0.781c0.165,0.343,0.249,0.757,0.249,1.245v1.798h-3.45v-0.98
		h2.342v-0.788c0-0.407-0.086-0.724-0.262-0.948c-0.174-0.223-0.421-0.336-0.742-0.336c-0.313,0-0.556,0.12-0.725,0.356
		c-0.173,0.238-0.259,0.573-0.259,1.006v2.561c0,0.395,0.091,0.701,0.271,0.918c0.183,0.222,0.438,0.331,0.766,0.331
		c0.31,0,0.549-0.084,0.722-0.253c0.172-0.171,0.254-0.409,0.251-0.717v-0.048l1.106,0.007v0.041c0,0.647-0.183,1.145-0.544,1.499
		c-0.361,0.352-0.874,0.529-1.535,0.529C198.025,78.795,197.641,78.704,197.321,78.52"/>
	<path style="fill:#58595B;" d="M201.622,71.647h1.132v7.047h-1.132V71.647z M204.818,72.625h-0.039h-0.076
		c-0.599,0-1.065,0.144-1.405,0.428c-0.341,0.285-0.52,0.681-0.544,1.188l-0.142-1.364c0.245-0.425,0.562-0.758,0.951-0.994
		c0.388-0.237,0.816-0.356,1.281-0.356v1.099H204.818z"/>
	<path style="fill:#58595B;" d="M206.389,78.52c-0.318-0.183-0.563-0.45-0.732-0.8c-0.17-0.352-0.256-0.773-0.256-1.267v-2.449
		c0-0.522,0.084-0.968,0.248-1.339c0.166-0.371,0.405-0.653,0.717-0.848c0.311-0.193,0.689-0.291,1.127-0.291
		c0.448,0,0.829,0.091,1.145,0.267c0.314,0.181,0.554,0.441,0.719,0.781c0.165,0.343,0.249,0.757,0.249,1.245v1.798h-3.45v-0.98
		h2.342v-0.788c0-0.407-0.086-0.724-0.262-0.948c-0.174-0.223-0.421-0.336-0.742-0.336c-0.313,0-0.556,0.12-0.725,0.356
		c-0.173,0.238-0.259,0.573-0.259,1.006v2.561c0,0.395,0.091,0.701,0.271,0.918c0.183,0.222,0.438,0.331,0.766,0.331
		c0.31,0,0.549-0.084,0.722-0.253c0.172-0.171,0.254-0.409,0.251-0.717v-0.048l1.106,0.007v0.041c0,0.647-0.183,1.145-0.544,1.499
		c-0.361,0.352-0.874,0.529-1.535,0.529C207.094,78.795,206.708,78.704,206.389,78.52"/>
	<path style="fill:#58595B;" d="M210.689,71.647h1.135v7.047h-1.135V71.647z M213.859,73.76c0-0.395-0.084-0.688-0.251-0.883
		c-0.168-0.194-0.424-0.293-0.767-0.293c-0.34,0-0.596,0.105-0.764,0.313c-0.17,0.209-0.257,0.524-0.257,0.951l-0.142-1.014
		c0.159-0.438,0.377-0.766,0.659-0.984c0.28-0.218,0.608-0.324,0.984-0.324c0.551,0,0.967,0.174,1.249,0.519
		c0.28,0.345,0.419,0.855,0.419,1.53v5.119h-1.132V73.76z"/>
	<path style="fill:#58595B;" d="M217.035,78.548c-0.316-0.167-0.559-0.404-0.727-0.72c-0.168-0.314-0.251-0.693-0.251-1.138v-2.96
		c0-0.465,0.083-0.862,0.251-1.189c0.168-0.328,0.412-0.58,0.73-0.755c0.318-0.172,0.701-0.26,1.149-0.26
		c0.454,0,0.84,0.088,1.161,0.26c0.321,0.175,0.565,0.43,0.733,0.758c0.167,0.333,0.25,0.729,0.25,1.201v0.141h-1.099v-0.141
		c0-0.371-0.091-0.655-0.268-0.856c-0.181-0.201-0.431-0.305-0.757-0.305c-0.321,0-0.572,0.101-0.752,0.3
		c-0.178,0.198-0.268,0.481-0.268,0.847v2.96c0,0.335,0.088,0.594,0.266,0.772c0.177,0.183,0.428,0.273,0.754,0.273
		s0.576-0.093,0.759-0.282c0.183-0.188,0.269-0.45,0.266-0.79v-0.142l1.114,0.005v0.137c0,0.452-0.087,0.836-0.257,1.154
		c-0.168,0.315-0.414,0.558-0.734,0.728c-0.324,0.165-0.712,0.249-1.169,0.249C217.736,78.795,217.351,78.714,217.035,78.548"/>
	<path style="fill:#58595B;" d="M221.993,78.52c-0.318-0.183-0.563-0.45-0.732-0.8c-0.17-0.352-0.257-0.773-0.257-1.267v-2.449
		c0-0.522,0.085-0.968,0.249-1.339c0.165-0.371,0.405-0.653,0.717-0.848c0.311-0.193,0.687-0.291,1.127-0.291
		c0.445,0,0.828,0.091,1.143,0.267c0.313,0.181,0.555,0.441,0.719,0.781c0.164,0.343,0.248,0.757,0.248,1.245v1.798h-3.448v-0.98
		h2.342v-0.788c0-0.407-0.086-0.724-0.261-0.948c-0.174-0.223-0.421-0.336-0.742-0.336c-0.313,0-0.556,0.12-0.726,0.356
		c-0.175,0.238-0.261,0.573-0.261,1.006v2.561c0,0.395,0.091,0.701,0.273,0.918c0.179,0.222,0.436,0.331,0.766,0.331
		c0.31,0,0.549-0.084,0.722-0.253c0.169-0.171,0.253-0.409,0.25-0.717v-0.048l1.104,0.007v0.041c0,0.647-0.18,1.145-0.541,1.499
		c-0.362,0.352-0.874,0.529-1.535,0.529C222.696,78.795,222.312,78.704,221.993,78.52"/>
	<path style="fill:#58595B;" d="M229.595,78.555c-0.306-0.162-0.536-0.396-0.696-0.703c-0.157-0.31-0.237-0.676-0.237-1.105v-3.205
		c0-0.423,0.08-0.787,0.237-1.089c0.16-0.299,0.391-0.532,0.696-0.689c0.305-0.158,0.671-0.236,1.098-0.236
		c0.424,0,0.787,0.078,1.089,0.236c0.299,0.157,0.528,0.391,0.688,0.689c0.16,0.302,0.236,0.666,0.236,1.089v3.226
		c0,0.424-0.076,0.791-0.236,1.095c-0.159,0.307-0.389,0.538-0.688,0.697c-0.302,0.157-0.665,0.236-1.089,0.236
		C230.266,78.795,229.899,78.714,229.595,78.555 M231.338,77.459c0.155-0.168,0.235-0.405,0.235-0.713v-3.185
		c0-0.298-0.08-0.529-0.237-0.698c-0.158-0.167-0.379-0.25-0.659-0.25c-0.274,0-0.49,0.083-0.647,0.25
		c-0.156,0.169-0.235,0.4-0.235,0.698v3.185c0,0.308,0.079,0.545,0.232,0.713s0.371,0.249,0.65,0.249
		C230.963,77.708,231.183,77.627,231.338,77.459"/>
	<path style="fill:#58595B;" d="M233.773,71.647h1.133v7.047h-1.133V71.647z M236.941,73.76c0-0.395-0.084-0.688-0.252-0.883
		c-0.165-0.194-0.421-0.293-0.766-0.293c-0.34,0-0.594,0.105-0.764,0.313c-0.168,0.209-0.254,0.524-0.254,0.951l-0.144-1.014
		c0.157-0.438,0.378-0.766,0.657-0.984c0.284-0.218,0.608-0.324,0.985-0.324c0.553,0,0.969,0.174,1.249,0.519
		c0.281,0.345,0.422,0.855,0.422,1.53v5.119h-1.135V73.76z"/>
	<path style="fill:#58595B;" d="M120.011,92.161c-0.356-0.176-0.624-0.437-0.805-0.779c-0.181-0.345-0.271-0.771-0.271-1.276v-0.488
		l1.127-0.007v0.47c0,0.416,0.106,0.73,0.321,0.94c0.216,0.213,0.533,0.321,0.954,0.321c0.412,0,0.722-0.105,0.93-0.316
		s0.312-0.527,0.312-0.945v-0.722c0-0.279-0.063-0.517-0.192-0.71c-0.128-0.197-0.292-0.36-0.492-0.492
		c-0.199-0.128-0.461-0.272-0.786-0.426c-0.015-0.005-0.025-0.01-0.035-0.014c-0.008-0.005-0.017-0.01-0.027-0.015l-0.087-0.041
		c-0.436-0.208-0.787-0.402-1.057-0.581c-0.27-0.183-0.497-0.43-0.682-0.742c-0.185-0.316-0.278-0.71-0.278-1.182v-0.529
		c0-0.497,0.09-0.914,0.269-1.254c0.178-0.34,0.444-0.594,0.801-0.769c0.355-0.17,0.795-0.256,1.32-0.256
		c0.507,0,0.931,0.086,1.275,0.26c0.345,0.176,0.604,0.435,0.779,0.779c0.178,0.345,0.265,0.766,0.265,1.269v0.515h-1.119v-0.488
		c-0.005-0.412-0.106-0.724-0.305-0.937c-0.199-0.213-0.498-0.317-0.896-0.317c-0.417,0-0.731,0.098-0.944,0.296
		c-0.212,0.199-0.319,0.496-0.319,0.891v0.549c0,0.279,0.067,0.518,0.2,0.707c0.134,0.188,0.3,0.347,0.496,0.469
		c0.197,0.121,0.469,0.261,0.818,0.421c0.036,0.017,0.068,0.033,0.099,0.051c0.028,0.015,0.06,0.028,0.092,0.043
		c0.021,0.009,0.043,0.019,0.063,0.026c0.021,0.01,0.04,0.02,0.058,0.028c0.38,0.18,0.695,0.361,0.943,0.539
		c0.249,0.18,0.456,0.424,0.623,0.73c0.164,0.309,0.245,0.694,0.245,1.159v0.768c0,0.506-0.089,0.932-0.268,1.276
		c-0.178,0.343-0.442,0.604-0.793,0.779c-0.352,0.171-0.787,0.261-1.308,0.261C120.808,92.422,120.366,92.332,120.011,92.161"/>
	<path style="fill:#58595B;" d="M124.296,85.274h1.154l1.567,6.053l-0.502,1.502L124.296,85.274z M129.109,85.274l-2.221,8.693
		c-0.077,0.29-0.2,0.529-0.369,0.719c-0.17,0.191-0.395,0.333-0.67,0.428c-0.276,0.097-0.605,0.142-0.99,0.142h-0.129v-1.072h0.129
		c0.353,0,0.626-0.077,0.817-0.232c0.192-0.155,0.328-0.397,0.404-0.724l1.874-7.953H129.109z"/>
	<path style="fill:#58595B;" d="M130.33,92.18c-0.315-0.16-0.558-0.4-0.724-0.717c-0.164-0.317-0.247-0.701-0.247-1.153v-0.028
		h1.086v0.028c0,0.366,0.089,0.645,0.266,0.834c0.176,0.19,0.436,0.286,0.78,0.286c0.34,0,0.598-0.094,0.773-0.274
		c0.176-0.185,0.264-0.448,0.264-0.791c0-0.201-0.042-0.363-0.125-0.493c-0.083-0.129-0.195-0.23-0.336-0.307
		c-0.141-0.074-0.328-0.153-0.563-0.239c-0.023-0.004-0.048-0.009-0.075-0.017c-0.026-0.008-0.053-0.015-0.081-0.024
		c-0.02-0.009-0.037-0.017-0.055-0.021c-0.018-0.005-0.037-0.008-0.054-0.012c-0.371-0.128-0.678-0.259-0.92-0.391
		c-0.243-0.135-0.449-0.333-0.617-0.602c-0.171-0.266-0.255-0.62-0.255-1.059c0-0.44,0.076-0.812,0.229-1.117
		c0.154-0.305,0.38-0.537,0.677-0.694c0.295-0.159,0.655-0.237,1.082-0.237c0.43,0,0.791,0.074,1.086,0.222
		c0.294,0.149,0.519,0.374,0.672,0.669c0.154,0.297,0.23,0.658,0.23,1.084v0.02h-1.086V87.12c0-0.323-0.075-0.564-0.228-0.73
		c-0.15-0.165-0.376-0.248-0.675-0.248c-0.295,0-0.518,0.088-0.668,0.266c-0.152,0.177-0.229,0.433-0.229,0.768
		c0,0.221,0.047,0.398,0.144,0.534c0.094,0.137,0.222,0.244,0.38,0.324c0.158,0.078,0.362,0.155,0.61,0.233
		c0.011,0,0.022,0.003,0.037,0.005c0.017,0.005,0.028,0.007,0.038,0.007c0.005,0.005,0.012,0.01,0.022,0.013
		c0.014,0,0.021,0.002,0.025,0.002c0.388,0.117,0.705,0.24,0.945,0.364c0.243,0.125,0.449,0.321,0.623,0.595
		c0.171,0.272,0.257,0.641,0.257,1.112c0,0.443-0.081,0.816-0.244,1.123c-0.163,0.304-0.404,0.539-0.723,0.694
		c-0.32,0.16-0.708,0.236-1.164,0.236C131.034,92.418,130.646,92.34,130.33,92.18"/>
	<path style="fill:#58595B;" d="M133.873,85.274h3.039v1.065h-3.039V85.274z M134.997,91.881c-0.266-0.314-0.397-0.779-0.397-1.395
		v-7.262h1.134v7.27c0,0.251,0.055,0.448,0.165,0.587c0.111,0.136,0.275,0.206,0.493,0.206h0.522v1.064h-0.666
		C135.678,92.352,135.262,92.193,134.997,91.881"/>
	<path style="fill:#58595B;" d="M138.628,92.146c-0.319-0.184-0.563-0.449-0.733-0.802c-0.169-0.35-0.256-0.773-0.256-1.264v-2.452
		c0-0.52,0.084-0.966,0.248-1.336c0.165-0.372,0.404-0.654,0.718-0.849c0.311-0.196,0.688-0.294,1.126-0.294
		c0.447,0,0.829,0.091,1.145,0.269c0.313,0.18,0.555,0.439,0.719,0.783c0.165,0.34,0.248,0.757,0.248,1.245v1.798h-3.449V88.26
		h2.343v-0.788c0-0.407-0.088-0.723-0.262-0.945c-0.175-0.226-0.421-0.338-0.743-0.338c-0.313,0-0.555,0.12-0.726,0.357
		c-0.173,0.236-0.259,0.574-0.259,1.008v2.559c0,0.394,0.091,0.7,0.271,0.92c0.183,0.221,0.438,0.328,0.768,0.328
		c0.308,0,0.549-0.083,0.72-0.254c0.173-0.169,0.255-0.407,0.251-0.716v-0.048l1.106,0.008v0.04c0,0.646-0.181,1.146-0.543,1.499
		c-0.362,0.354-0.873,0.528-1.534,0.528C139.332,92.418,138.946,92.328,138.628,92.146"/>
	<path style="fill:#58595B;" d="M142.927,85.274h1.135v7.044h-1.135V85.274z M145.968,87.384c0-0.394-0.072-0.688-0.217-0.882
		c-0.145-0.193-0.37-0.291-0.672-0.291c-0.34,0-0.595,0.104-0.764,0.315c-0.17,0.208-0.255,0.526-0.255,0.952l-0.143-1.018
		c0.163-0.439,0.382-0.766,0.658-0.983c0.275-0.218,0.605-0.328,0.984-0.328c0.335,0,0.618,0.079,0.849,0.232
		s0.405,0.383,0.522,0.686c0.117,0.304,0.176,0.68,0.176,1.127v5.124h-1.14V87.384z M149.016,87.384
		c0-0.394-0.085-0.688-0.255-0.882c-0.17-0.193-0.425-0.291-0.764-0.291c-0.303,0-0.528,0.104-0.67,0.315
		c-0.146,0.208-0.22,0.526-0.22,0.952l-0.229-0.928c0.125-0.463,0.331-0.812,0.618-1.047c0.283-0.234,0.612-0.354,0.983-0.354
		c0.364,0,0.672,0.079,0.92,0.232c0.246,0.153,0.433,0.383,0.56,0.69c0.127,0.303,0.189,0.682,0.189,1.129v5.117h-1.133V87.384z"/>
	<path style="fill:#58595B;" d="M153.106,82.448h4.792v1.066h-4.792V82.448z M154.933,83.258h1.141v9.061h-1.141V83.258z"/>
	<path style="fill:#58595B;" d="M158.354,82.448h1.134v9.87h-1.134V82.448z M161.523,87.384c0-0.394-0.085-0.688-0.252-0.882
		c-0.167-0.193-0.423-0.291-0.766-0.291c-0.34,0-0.594,0.103-0.765,0.311c-0.169,0.208-0.253,0.524-0.253,0.95l-0.144-1.08
		c0.158-0.414,0.375-0.727,0.655-0.933c0.278-0.206,0.608-0.31,0.987-0.31c0.553,0,0.969,0.176,1.249,0.522
		c0.28,0.345,0.421,0.854,0.421,1.529v5.117h-1.134V87.384z"/>
	<path style="fill:#58595B;" d="M164.71,92.146c-0.318-0.184-0.563-0.449-0.732-0.802c-0.171-0.35-0.257-0.773-0.257-1.264v-2.452
		c0-0.52,0.084-0.966,0.25-1.336c0.164-0.372,0.404-0.654,0.715-0.849c0.312-0.196,0.688-0.294,1.128-0.294
		c0.446,0,0.828,0.091,1.143,0.269c0.313,0.18,0.556,0.439,0.719,0.783c0.165,0.34,0.248,0.757,0.248,1.245v1.798h-3.447V88.26
		h2.342v-0.788c0-0.407-0.086-0.723-0.262-0.945c-0.174-0.226-0.421-0.338-0.742-0.338c-0.313,0-0.555,0.12-0.728,0.357
		c-0.172,0.236-0.258,0.574-0.258,1.008v2.559c0,0.394,0.091,0.7,0.272,0.92c0.179,0.221,0.436,0.328,0.766,0.328
		c0.309,0,0.549-0.083,0.722-0.254c0.169-0.169,0.253-0.407,0.251-0.716v-0.048l1.104,0.008v0.04c0,0.646-0.18,1.146-0.541,1.499
		c-0.361,0.354-0.874,0.528-1.535,0.528C165.414,92.418,165.029,92.328,164.71,92.146"/>
	<path style="fill:#58595B;" d="M169.808,92.18c-0.306-0.16-0.539-0.396-0.696-0.704c-0.158-0.307-0.238-0.675-0.238-1.104v-3.203
		c0-0.426,0.08-0.79,0.238-1.089c0.157-0.303,0.391-0.532,0.696-0.689c0.305-0.159,0.671-0.24,1.094-0.24
		c0.427,0,0.791,0.081,1.093,0.24c0.299,0.157,0.528,0.387,0.688,0.689c0.157,0.299,0.236,0.663,0.236,1.089v3.223
		c0,0.424-0.079,0.793-0.236,1.097c-0.159,0.304-0.389,0.537-0.688,0.694c-0.302,0.158-0.666,0.24-1.093,0.24
		C170.479,92.422,170.112,92.34,169.808,92.18 M171.551,91.083c0.155-0.168,0.234-0.404,0.234-0.712v-3.184
		c0-0.299-0.079-0.532-0.236-0.699c-0.158-0.168-0.379-0.252-0.659-0.252c-0.275,0-0.49,0.084-0.648,0.252
		c-0.156,0.167-0.235,0.4-0.235,0.699v3.184c0,0.308,0.077,0.544,0.233,0.712c0.153,0.167,0.37,0.251,0.65,0.251
		C171.175,91.334,171.396,91.25,171.551,91.083"/>
	<path style="fill:#58595B;" d="M173.983,85.274h1.136v7.044h-1.136V85.274z M177.183,86.251h-0.038h-0.079
		c-0.597,0-1.063,0.141-1.403,0.427c-0.34,0.287-0.522,0.683-0.543,1.189l-0.144-1.365c0.243-0.426,0.56-0.756,0.95-0.993
		c0.39-0.239,0.816-0.356,1.283-0.356v1.099H177.183z"/>
	<path style="fill:#58595B;" d="M177.561,85.274h1.154l1.568,6.053l-0.503,1.502L177.561,85.274z M182.373,85.274l-2.22,8.693
		c-0.076,0.29-0.201,0.529-0.368,0.719c-0.17,0.191-0.396,0.333-0.67,0.428c-0.275,0.097-0.606,0.142-0.992,0.142h-0.127v-1.072
		h0.127c0.354,0,0.627-0.077,0.819-0.232c0.191-0.155,0.328-0.397,0.404-0.724l1.873-7.953H182.373z"/>
	<polygon style="fill:#58595B;" points="181.959,91.083 183.194,91.083 183.194,92.943 181.959,94.36 	"/>
	<path style="fill:#58595B;" d="M187.701,92.122c-0.345-0.199-0.605-0.486-0.788-0.867c-0.18-0.375-0.271-0.83-0.271-1.359v-5.017
		c0-0.534,0.091-0.989,0.271-1.367c0.183-0.378,0.443-0.665,0.785-0.864c0.343-0.199,0.755-0.299,1.238-0.299s0.897,0.1,1.242,0.299
		c0.342,0.199,0.604,0.486,0.783,0.864s0.269,0.831,0.269,1.36v0.396h-1.141v-0.396c0-0.298-0.045-0.556-0.136-0.769
		c-0.091-0.216-0.221-0.379-0.394-0.489c-0.172-0.111-0.38-0.167-0.624-0.167c-0.245,0-0.453,0.056-0.625,0.167
		c-0.17,0.11-0.302,0.273-0.393,0.489c-0.091,0.213-0.137,0.475-0.137,0.775v5.017c0,0.3,0.046,0.555,0.137,0.771
		c0.091,0.215,0.223,0.377,0.393,0.488c0.172,0.109,0.38,0.164,0.625,0.164c0.249,0,0.457-0.055,0.629-0.164
		c0.168-0.111,0.298-0.273,0.389-0.486c0.091-0.212,0.136-0.47,0.136-0.773v-0.394h1.141v0.394c0,0.529-0.089,0.984-0.269,1.359
		c-0.18,0.381-0.441,0.668-0.783,0.867c-0.345,0.198-0.759,0.3-1.242,0.3C188.457,92.422,188.046,92.32,187.701,92.122"/>
	<path style="fill:#58595B;" d="M193.026,92.18c-0.307-0.16-0.536-0.396-0.697-0.704c-0.158-0.307-0.236-0.675-0.236-1.104v-3.203
		c0-0.426,0.078-0.79,0.236-1.089c0.161-0.303,0.391-0.532,0.697-0.689c0.304-0.159,0.67-0.24,1.097-0.24
		c0.423,0,0.787,0.081,1.089,0.24c0.299,0.157,0.529,0.387,0.688,0.689c0.16,0.299,0.237,0.663,0.237,1.089v3.223
		c0,0.424-0.077,0.793-0.237,1.097c-0.158,0.304-0.389,0.537-0.688,0.694c-0.302,0.158-0.666,0.24-1.089,0.24
		C193.696,92.422,193.33,92.34,193.026,92.18 M194.771,91.083c0.156-0.168,0.232-0.404,0.232-0.712v-3.184
		c0-0.299-0.079-0.532-0.237-0.699c-0.158-0.168-0.378-0.252-0.658-0.252c-0.276,0-0.491,0.084-0.649,0.252
		c-0.155,0.167-0.234,0.4-0.234,0.699v3.184c0,0.308,0.079,0.544,0.232,0.712c0.153,0.167,0.371,0.251,0.651,0.251
		C194.394,91.334,194.616,91.25,194.771,91.083"/>
	<path style="fill:#58595B;" d="M197.204,85.274h1.133v7.044h-1.133V85.274z M200.372,87.384c0-0.394-0.082-0.688-0.252-0.882
		c-0.165-0.193-0.421-0.291-0.766-0.291c-0.338,0-0.595,0.103-0.764,0.311c-0.168,0.208-0.254,0.524-0.254,0.95l-0.142-1.011
		c0.158-0.439,0.377-0.766,0.656-0.983c0.282-0.218,0.608-0.328,0.986-0.328c0.551,0,0.968,0.176,1.248,0.522
		c0.282,0.345,0.421,0.854,0.421,1.529v5.117h-1.135V87.384z"/>
	<path style="fill:#58595B;" d="M202.163,85.274h3.041v1.065h-3.041V85.274z M203.288,91.881c-0.266-0.314-0.397-0.779-0.397-1.395
		v-7.262h1.135v7.27c0,0.251,0.056,0.448,0.166,0.587c0.109,0.136,0.272,0.206,0.49,0.206h0.524v1.064h-0.665
		C203.971,92.352,203.552,92.193,203.288,91.881"/>
	<path style="fill:#58595B;" d="M206.067,85.274h1.133v7.044h-1.133V85.274z M209.265,86.251h-0.038h-0.077
		c-0.599,0-1.065,0.141-1.405,0.427c-0.34,0.287-0.522,0.683-0.544,1.189l-0.141-1.365c0.244-0.426,0.56-0.756,0.95-0.993
		c0.389-0.239,0.816-0.356,1.281-0.356v1.099H209.265z"/>
	<path style="fill:#58595B;" d="M210.78,92.18c-0.304-0.16-0.536-0.396-0.696-0.704c-0.159-0.307-0.238-0.675-0.238-1.104v-3.203
		c0-0.426,0.079-0.79,0.238-1.089c0.16-0.303,0.393-0.532,0.696-0.689c0.307-0.159,0.67-0.24,1.097-0.24s0.788,0.081,1.089,0.24
		c0.303,0.157,0.529,0.387,0.688,0.689c0.159,0.299,0.238,0.663,0.238,1.089v3.223c0,0.424-0.079,0.793-0.238,1.097
		s-0.386,0.537-0.688,0.694c-0.301,0.158-0.662,0.24-1.089,0.24S211.087,92.34,210.78,92.18 M212.525,91.083
		c0.156-0.168,0.234-0.404,0.234-0.712v-3.184c0-0.299-0.081-0.532-0.238-0.699c-0.159-0.168-0.377-0.252-0.659-0.252
		c-0.275,0-0.49,0.084-0.649,0.252c-0.155,0.167-0.231,0.4-0.231,0.699v3.184c0,0.308,0.076,0.544,0.229,0.712
		c0.153,0.167,0.371,0.251,0.651,0.251C212.147,91.334,212.37,91.25,212.525,91.083"/>
	<path style="fill:#58595B;" d="M216.092,90.457c0,0.255,0.054,0.451,0.167,0.59c0.11,0.137,0.268,0.206,0.472,0.206h0.421v1.065
		h-0.544c-0.524,0-0.932-0.162-1.219-0.488c-0.286-0.326-0.43-0.786-0.43-1.377v-8.005h1.133V90.457z"/>
	<path style="fill:#58595B;" d="M220.727,91.928c-0.299-0.328-0.447-0.823-0.447-1.482c0-0.792,0.182-1.383,0.543-1.773
		c0.361-0.394,0.905-0.59,1.629-0.59h1.087l0.093,0.93h-1.173c-0.372,0-0.649,0.12-0.837,0.356c-0.184,0.24-0.277,0.597-0.277,1.077
		c0,0.354,0.085,0.613,0.247,0.784c0.167,0.169,0.417,0.254,0.752,0.254c0.379,0,0.663-0.102,0.853-0.305
		c0.187-0.204,0.28-0.512,0.28-0.925l0.144,0.618c-0.005,0.345-0.064,0.632-0.183,0.861c-0.114,0.23-0.284,0.405-0.512,0.518
		c-0.226,0.113-0.511,0.171-0.853,0.171C221.474,92.422,221.026,92.256,220.727,91.928 M223.476,87.161
		c0-0.33-0.092-0.587-0.271-0.77c-0.183-0.179-0.438-0.271-0.768-0.271c-0.289,0-0.516,0.092-0.68,0.271
		c-0.162,0.183-0.241,0.441-0.236,0.774l-1.102-0.005c0-0.64,0.18-1.133,0.539-1.484c0.356-0.35,0.861-0.524,1.513-0.524
		c0.438,0,0.814,0.078,1.128,0.237c0.312,0.157,0.549,0.387,0.711,0.685c0.163,0.299,0.245,0.66,0.245,1.087v5.157h-1.08V87.161z"/>
	<path style="fill:#58595B;" d="M225.758,85.274h1.134v7.044h-1.134V85.274z M228.927,87.384c0-0.394-0.084-0.688-0.251-0.882
		c-0.168-0.193-0.424-0.291-0.767-0.291c-0.34,0-0.596,0.103-0.764,0.311c-0.169,0.208-0.256,0.524-0.256,0.95l-0.142-1.011
		c0.159-0.439,0.376-0.766,0.659-0.983c0.279-0.218,0.607-0.328,0.984-0.328c0.551,0,0.967,0.176,1.249,0.522
		c0.28,0.345,0.419,0.854,0.419,1.529v5.117h-1.133V87.384z"/>
	<path style="fill:#58595B;" d="M231.892,92.191c-0.249-0.162-0.438-0.407-0.57-0.726c-0.131-0.318-0.196-0.696-0.196-1.135v-2.996
		c0-0.456,0.065-0.849,0.196-1.175c0.132-0.328,0.321-0.58,0.567-0.752c0.247-0.17,0.544-0.259,0.891-0.259
		c0.335,0,0.643,0.11,0.918,0.328c0.277,0.218,0.5,0.522,0.673,0.917l-0.142,0.984c0-0.254-0.041-0.472-0.117-0.649
		c-0.077-0.179-0.188-0.315-0.336-0.412c-0.148-0.095-0.323-0.141-0.534-0.141c-0.311,0-0.553,0.105-0.725,0.318
		c-0.17,0.213-0.259,0.51-0.259,0.889v2.918c0,0.354,0.089,0.627,0.259,0.821c0.172,0.196,0.414,0.293,0.725,0.293
		c0.211,0,0.386-0.046,0.534-0.139c0.148-0.094,0.259-0.226,0.336-0.397c0.076-0.173,0.117-0.382,0.117-0.631l0.093,0.964
		c-0.132,0.389-0.33,0.691-0.596,0.906c-0.269,0.213-0.582,0.321-0.946,0.321C232.438,92.44,232.141,92.357,231.892,92.191
		 M234.229,82.448h1.133v9.87h-1.133V82.448z"/>
	<path style="fill:#58595B;" d="M240.057,92.122c-0.343-0.199-0.606-0.486-0.788-0.867c-0.18-0.375-0.271-0.83-0.271-1.359v-5.017
		c0-0.534,0.091-0.989,0.271-1.367c0.182-0.378,0.443-0.665,0.785-0.864c0.343-0.199,0.754-0.299,1.237-0.299
		c0.484,0,0.899,0.1,1.244,0.299s0.605,0.486,0.782,0.864c0.18,0.378,0.268,0.831,0.268,1.36v0.396h-1.14v-0.396
		c0-0.298-0.045-0.556-0.137-0.769c-0.088-0.216-0.22-0.379-0.392-0.489c-0.173-0.111-0.381-0.167-0.626-0.167
		c-0.243,0-0.451,0.056-0.624,0.167c-0.17,0.11-0.302,0.273-0.394,0.489c-0.09,0.213-0.136,0.475-0.136,0.775v5.017
		c0,0.3,0.046,0.555,0.136,0.771c0.092,0.215,0.224,0.377,0.394,0.488c0.173,0.109,0.381,0.164,0.624,0.164
		c0.25,0,0.458-0.055,0.631-0.164c0.167-0.111,0.299-0.273,0.387-0.486c0.092-0.212,0.137-0.47,0.137-0.773v-0.394h1.14v0.394
		c0,0.529-0.088,0.984-0.268,1.359c-0.177,0.381-0.438,0.668-0.782,0.867c-0.345,0.198-0.76,0.3-1.244,0.3
		C240.813,92.422,240.401,92.32,240.057,92.122"/>
	<path style="fill:#58595B;" d="M245.382,92.18c-0.305-0.16-0.537-0.396-0.697-0.704c-0.158-0.307-0.237-0.675-0.237-1.104v-3.203
		c0-0.426,0.079-0.79,0.237-1.089c0.16-0.303,0.393-0.532,0.697-0.689c0.306-0.159,0.67-0.24,1.096-0.24
		c0.427,0,0.788,0.081,1.09,0.24c0.299,0.157,0.529,0.387,0.687,0.689c0.161,0.299,0.24,0.663,0.24,1.089v3.223
		c0,0.424-0.079,0.793-0.24,1.097c-0.157,0.304-0.388,0.537-0.687,0.694c-0.302,0.158-0.663,0.24-1.09,0.24
		C246.052,92.422,245.688,92.34,245.382,92.18 M247.127,91.083c0.155-0.168,0.232-0.404,0.232-0.712v-3.184
		c0-0.299-0.079-0.532-0.238-0.699c-0.157-0.168-0.377-0.252-0.657-0.252c-0.275,0-0.491,0.084-0.649,0.252
		c-0.155,0.167-0.231,0.4-0.231,0.699v3.184c0,0.308,0.076,0.544,0.229,0.712c0.152,0.167,0.371,0.251,0.651,0.251
		C246.749,91.334,246.971,91.25,247.127,91.083"/>
	<path style="fill:#58595B;" d="M249.56,85.274h1.132v7.044h-1.132V85.274z M252.601,87.384c0-0.394-0.075-0.688-0.219-0.882
		c-0.144-0.193-0.368-0.291-0.673-0.291c-0.337,0-0.593,0.104-0.763,0.315c-0.168,0.208-0.255,0.526-0.255,0.952l-0.141-1.018
		c0.163-0.439,0.381-0.766,0.656-0.983c0.277-0.218,0.605-0.328,0.985-0.328c0.333,0,0.619,0.079,0.849,0.232
		s0.404,0.383,0.522,0.686c0.116,0.304,0.176,0.68,0.176,1.127v5.124h-1.139V87.384z M255.646,87.384
		c0-0.394-0.085-0.688-0.254-0.882c-0.171-0.193-0.425-0.291-0.765-0.291c-0.304,0-0.526,0.104-0.67,0.315
		c-0.146,0.208-0.219,0.526-0.219,0.952l-0.231-0.928c0.127-0.463,0.333-0.812,0.62-1.047c0.282-0.234,0.613-0.354,0.984-0.354
		c0.363,0,0.671,0.079,0.919,0.232c0.247,0.153,0.432,0.383,0.56,0.69c0.125,0.303,0.189,0.682,0.189,1.129v5.117h-1.134V87.384z"/>
	<path style="fill:#58595B;" d="M257.982,85.274h1.133v9.907h-1.133V85.274z M259.573,92.099c-0.269-0.216-0.453-0.511-0.554-0.886
		l0.096-1.08c0,0.272,0.038,0.502,0.115,0.691c0.077,0.191,0.188,0.335,0.338,0.436c0.146,0.101,0.322,0.149,0.531,0.149
		c0.316,0,0.563-0.115,0.737-0.344c0.173-0.229,0.261-0.548,0.261-0.96v-2.674c0-0.402-0.088-0.714-0.261-0.937
		c-0.175-0.223-0.421-0.333-0.737-0.333c-0.209,0-0.385,0.049-0.531,0.144c-0.149,0.097-0.261,0.235-0.338,0.424
		c-0.077,0.188-0.115,0.412-0.115,0.675l-0.144-0.964c0.142-0.407,0.356-0.724,0.648-0.951c0.293-0.225,0.613-0.34,0.961-0.34
		c0.345,0,0.639,0.091,0.886,0.266c0.246,0.178,0.434,0.434,0.561,0.767c0.127,0.335,0.191,0.744,0.191,1.223v2.722
		c0,0.485-0.069,0.899-0.201,1.242c-0.134,0.345-0.328,0.605-0.582,0.783c-0.254,0.179-0.561,0.267-0.921,0.267
		S259.844,92.313,259.573,92.099"/>
	<path style="fill:#58595B;" d="M264.247,90.417c0,0.295,0.081,0.522,0.243,0.681c0.164,0.157,0.4,0.236,0.714,0.236
		c0.316,0,0.554-0.077,0.709-0.234c0.156-0.155,0.234-0.393,0.234-0.709l0.094,0.889c-0.132,0.385-0.318,0.671-0.563,0.859
		c-0.245,0.187-0.549,0.283-0.915,0.283c-0.537,0-0.943-0.173-1.226-0.513c-0.285-0.343-0.427-0.833-0.427-1.471v-5.164h1.136
		V90.417z M266.147,85.274h1.133v7.044h-1.133V85.274z"/>
	<path style="fill:#58595B;" d="M267.938,85.274h3.038v1.065h-3.038V85.274z M269.062,91.881c-0.264-0.314-0.397-0.779-0.397-1.395
		v-7.262h1.136v7.27c0,0.251,0.055,0.448,0.164,0.587c0.113,0.136,0.275,0.206,0.494,0.206h0.521v1.064h-0.666
		C269.744,92.352,269.327,92.193,269.062,91.881"/>
	<path style="fill:#58595B;" d="M271.901,82.688h1.143v1.132h-1.143V82.688z M271.901,85.274h1.143v7.044h-1.143V85.274z"/>
	<path style="fill:#58595B;" d="M274.305,85.274h1.136v7.044h-1.136V85.274z M277.473,87.384c0-0.394-0.081-0.688-0.251-0.882
		c-0.165-0.193-0.422-0.291-0.767-0.291c-0.338,0-0.594,0.103-0.764,0.311c-0.168,0.208-0.254,0.524-0.254,0.95l-0.141-1.011
		c0.157-0.439,0.376-0.766,0.658-0.983c0.28-0.218,0.606-0.328,0.983-0.328c0.552,0,0.969,0.176,1.248,0.522
		c0.282,0.345,0.422,0.854,0.422,1.529v5.117h-1.136V87.384z"/>
	<path style="fill:#58595B;" d="M280.442,92.193c-0.25-0.164-0.44-0.406-0.572-0.728c-0.132-0.318-0.196-0.696-0.196-1.135v-2.996
		c0-0.454,0.064-0.849,0.196-1.175c0.132-0.331,0.32-0.577,0.567-0.752c0.247-0.17,0.543-0.259,0.893-0.259
		c0.335,0,0.643,0.11,0.92,0.328s0.5,0.522,0.668,0.914l-0.144,0.966c0-0.254-0.036-0.469-0.11-0.649
		c-0.074-0.18-0.188-0.316-0.335-0.409c-0.151-0.096-0.331-0.144-0.539-0.144c-0.311,0-0.553,0.107-0.726,0.318
		c-0.17,0.214-0.258,0.51-0.258,0.891v2.957c0,0.354,0.088,0.63,0.258,0.822c0.173,0.196,0.415,0.291,0.726,0.291
		c0.208,0,0.388-0.046,0.534-0.139c0.146-0.091,0.259-0.223,0.335-0.396c0.079-0.173,0.115-0.383,0.115-0.631l0.096,0.943
		c-0.127,0.387-0.326,0.691-0.594,0.906c-0.271,0.213-0.584,0.321-0.946,0.321C280.985,92.44,280.688,92.357,280.442,92.193
		 M280.243,94.65c-0.356-0.356-0.536-0.853-0.536-1.489v-0.084h1.125v0.084c0,0.316,0.089,0.561,0.259,0.734
		c0.172,0.176,0.414,0.262,0.721,0.262c0.309,0,0.547-0.084,0.714-0.25c0.167-0.169,0.249-0.406,0.249-0.713v-7.92h1.135v7.92
		c0,0.422-0.084,0.778-0.251,1.075c-0.168,0.297-0.412,0.522-0.733,0.681c-0.32,0.155-0.709,0.233-1.161,0.233
		C281.107,95.184,280.603,95.005,280.243,94.65"/>
	<rect x="119.002" y="5.303" style="fill:#2E3191;" width="9.259" height="54.278"/>
	<path style="fill:#2E3191;" d="M140.169,58.518c-1.941-1.082-3.43-2.656-4.461-4.722c-1.032-2.065-1.551-4.555-1.551-7.466V18.557
		c0-2.912,0.519-5.401,1.551-7.468c1.031-2.064,2.52-3.638,4.461-4.721c1.94-1.083,4.279-1.625,7.019-1.625
		c2.736,0,5.082,0.542,7.035,1.625c1.955,1.083,3.441,2.663,4.462,4.74c1.02,2.079,1.531,4.573,1.531,7.484v4.368h-9.372v-4.368
		c0-0.92-0.137-1.716-0.409-2.389c-0.274-0.671-0.69-1.188-1.25-1.548c-0.561-0.361-1.226-0.542-1.997-0.542
		c-0.748,0-1.396,0.174-1.941,0.523c-0.549,0.348-0.966,0.858-1.251,1.53c-0.288,0.672-0.429,1.469-0.429,2.39V46.33
		c0,0.92,0.141,1.711,0.429,2.37c0.285,0.66,0.702,1.164,1.251,1.513c0.546,0.348,1.193,0.522,1.941,0.522
		c0.795,0,1.467-0.174,2.016-0.522c0.547-0.35,0.957-0.854,1.231-1.513c0.272-0.659,0.409-1.461,0.409-2.407v-4.367h9.372v4.367
		c0,2.912-0.512,5.407-1.531,7.485c-1.021,2.078-2.507,3.658-4.462,4.74c-1.953,1.082-4.299,1.623-7.035,1.623
		C144.448,60.141,142.109,59.6,140.169,58.518"/>
	<path style="fill:#2E3191;" d="M170.182,58.556c-2.042-1.059-3.602-2.589-4.687-4.593c-1.082-2.003-1.623-4.41-1.623-7.223v-2.912
		l9.221-0.075v2.913c0,1.368,0.385,2.445,1.156,3.229c0.771,0.784,1.842,1.176,3.211,1.176c1.343,0,2.383-0.386,3.117-1.157
		c0.732-0.771,1.103-1.83,1.103-3.174v-4.741c0-0.995-0.28-1.859-0.842-2.594c-0.56-0.735-1.28-1.368-2.164-1.904
		c-0.884-0.535-2.086-1.176-3.604-1.922c-0.098-0.051-0.191-0.1-0.279-0.149c-0.087-0.05-0.181-0.1-0.28-0.15l-0.483-0.223
		c-2.017-1.02-3.736-2.085-5.151-3.192c-1.42-1.108-2.603-2.57-3.548-4.387c-0.946-1.816-1.42-4.057-1.42-6.719v-2.8
		c0-2.762,0.529-5.133,1.587-7.111c1.059-1.978,2.596-3.491,4.612-4.535c2.013-1.046,4.44-1.568,7.278-1.568
		c2.761,0,5.139,0.522,7.131,1.568c1.989,1.044,3.508,2.569,4.554,4.573c1.044,2.004,1.568,4.411,1.568,7.223v3.061l-9.221,0.111
		v-3.098c0-1.394-0.356-2.482-1.065-3.266c-0.708-0.785-1.697-1.177-2.967-1.177c-1.344,0-2.385,0.356-3.117,1.064
		c-0.735,0.709-1.102,1.687-1.102,2.931v3.62c0,1.021,0.269,1.905,0.803,2.651c0.536,0.747,1.207,1.375,2.016,1.885
		c0.81,0.51,1.935,1.127,3.379,1.848c0.272,0.125,0.553,0.262,0.84,0.41c0.285,0.15,0.58,0.3,0.879,0.448
		c0.048,0.026,0.091,0.051,0.129,0.077c0.038,0.024,0.082,0.05,0.132,0.074c2.063,1.095,3.732,2.109,5.002,3.042
		c1.266,0.932,2.352,2.247,3.247,3.938c0.896,1.691,1.344,3.856,1.344,6.495v4.517c0,2.813-0.53,5.22-1.589,7.223
		c-1.055,2.004-2.593,3.534-4.608,4.593c-2.017,1.057-4.43,1.585-7.243,1.585C174.661,60.141,172.222,59.612,170.182,58.556"/>
	<path style="fill:#2E3191;" d="M193.848,5.305h27.176v8.885h-27.176V5.305z M202.807,9.859h9.259v49.724h-9.259V9.859z"/>
	<path style="fill:#2E3191;" d="M229.946,58.518c-1.94-1.082-3.43-2.656-4.462-4.722s-1.549-4.555-1.549-7.466V18.557
		c0-2.912,0.517-5.401,1.549-7.468c1.032-2.064,2.521-3.638,4.462-4.721c1.94-1.083,4.28-1.625,7.019-1.625
		c2.737,0,5.083,0.542,7.034,1.625c1.954,1.083,3.441,2.663,4.461,4.74c1.021,2.079,1.533,4.573,1.533,7.484v4.368h-9.372v-4.368
		c0-0.92-0.137-1.716-0.409-2.389c-0.275-0.671-0.692-1.188-1.25-1.548c-0.56-0.361-1.226-0.542-1.997-0.542
		c-0.747,0-1.396,0.174-1.941,0.523c-0.549,0.348-0.966,0.858-1.25,1.53c-0.287,0.672-0.431,1.469-0.431,2.39V46.33
		c0,0.92,0.144,1.711,0.431,2.37c0.284,0.66,0.701,1.164,1.25,1.513c0.546,0.348,1.194,0.522,1.941,0.522
		c0.795,0,1.468-0.174,2.017-0.522c0.546-0.35,0.955-0.854,1.23-1.513c0.272-0.659,0.409-1.461,0.409-2.407v-4.367h9.372v4.367
		c0,2.912-0.513,5.407-1.533,7.485c-1.02,2.078-2.507,3.658-4.461,4.74c-1.951,1.082-4.297,1.623-7.034,1.623
		C234.227,60.141,231.887,59.6,229.946,58.518"/>
	<path style="fill:#2E3191;" d="M260.406,58.518c-1.939-1.082-3.429-2.656-4.461-4.722c-1.031-2.065-1.549-4.555-1.549-7.466V18.557
		c0-2.912,0.518-5.401,1.549-7.468c1.032-2.064,2.521-3.638,4.461-4.721c1.942-1.083,4.28-1.625,7.021-1.625
		c2.736,0,5.08,0.542,7.034,1.625c1.954,1.083,3.441,2.663,4.461,4.74c1.021,2.079,1.532,4.573,1.532,7.484v4.368h-9.371v-4.368
		c0-0.92-0.137-1.716-0.409-2.389c-0.275-0.671-0.692-1.188-1.251-1.548c-0.56-0.361-1.226-0.542-1.996-0.542
		c-0.75,0-1.396,0.174-1.942,0.523c-0.548,0.348-0.965,0.858-1.253,1.53c-0.284,0.672-0.428,1.469-0.428,2.39V46.33
		c0,0.92,0.144,1.711,0.428,2.37c0.288,0.66,0.705,1.164,1.253,1.513c0.546,0.348,1.192,0.522,1.942,0.522
		c0.794,0,1.467-0.174,2.014-0.522c0.548-0.35,0.958-0.854,1.233-1.513c0.272-0.659,0.409-1.461,0.409-2.407v-4.367h9.371v4.367
		c0,2.912-0.512,5.407-1.532,7.485c-1.02,2.078-2.507,3.658-4.461,4.74s-4.298,1.623-7.034,1.623
		C264.687,60.141,262.349,59.6,260.406,58.518"/>
	<path style="fill:#00ADEE;" d="M269.682,36.531l2.284-3.978c0.345-0.592,0.599-1.124,0.762-1.597s0.247-0.888,0.247-1.247V29.56
		c0-0.275-0.056-0.479-0.161-0.612c-0.107-0.131-0.273-0.199-0.495-0.199c-0.257,0-0.44,0.083-0.558,0.249
		c-0.118,0.167-0.176,0.427-0.176,0.78v0.405h-1.966v-0.405c0-0.661,0.099-1.206,0.292-1.637c0.196-0.432,0.489-0.754,0.881-0.97
		c0.394-0.216,0.89-0.323,1.488-0.323c0.596,0,1.092,0.099,1.483,0.299c0.393,0.201,0.688,0.501,0.881,0.905
		c0.194,0.403,0.293,0.908,0.293,1.516v0.149c0,0.415-0.092,0.893-0.272,1.434c-0.183,0.541-0.458,1.16-0.826,1.855l-1.804,3.391
		h2.886v1.902h-5.239V36.531z"/>
	<path style="fill:#00ADEE;" d="M276.855,37.704c-0.458-0.476-0.688-1.147-0.688-2.016v-6.112c0-0.867,0.229-1.54,0.688-2.014
		c0.457-0.477,1.101-0.715,1.933-0.715c0.833,0,1.478,0.238,1.934,0.715c0.458,0.474,0.685,1.147,0.685,2.014v6.112
		c0,0.868-0.227,1.54-0.685,2.016c-0.456,0.475-1.101,0.713-1.934,0.713C277.956,38.417,277.313,38.179,276.855,37.704
		 M279.29,36.296c0.122-0.146,0.185-0.348,0.185-0.608v-6.112c0-0.26-0.063-0.462-0.185-0.608c-0.122-0.145-0.289-0.218-0.502-0.218
		s-0.381,0.074-0.504,0.218c-0.121,0.146-0.181,0.348-0.181,0.608v6.112c0,0.26,0.06,0.462,0.181,0.608
		c0.123,0.146,0.291,0.218,0.504,0.218S279.168,36.442,279.29,36.296"/>
	<path style="fill:#00ADEE;" d="M282.703,36.531l2.283-3.978c0.342-0.592,0.597-1.124,0.76-1.597
		c0.165-0.473,0.246-0.888,0.246-1.247V29.56c0-0.275-0.052-0.479-0.16-0.612c-0.105-0.131-0.271-0.199-0.495-0.199
		c-0.254,0-0.441,0.083-0.559,0.249c-0.114,0.167-0.172,0.427-0.172,0.78v0.405h-1.966v-0.405c0-0.661,0.095-1.206,0.292-1.637
		c0.193-0.432,0.488-0.754,0.881-0.97s0.888-0.323,1.484-0.323c0.599,0,1.094,0.099,1.484,0.299
		c0.394,0.201,0.688,0.501,0.884,0.905c0.194,0.403,0.289,0.908,0.289,1.516v0.149c0,0.415-0.091,0.893-0.272,1.434
		s-0.457,1.16-0.826,1.855l-1.801,3.391h2.886v1.902h-5.238V36.531z"/>
	<path style="fill:#00ADEE;" d="M289.876,37.704c-0.457-0.476-0.687-1.147-0.687-2.016v-6.112c0-0.867,0.229-1.54,0.687-2.014
		c0.457-0.477,1.102-0.715,1.932-0.715c0.832,0,1.476,0.238,1.933,0.715c0.458,0.474,0.688,1.147,0.688,2.014v6.112
		c0,0.868-0.229,1.54-0.688,2.016c-0.457,0.475-1.101,0.713-1.933,0.713C290.978,38.417,290.333,38.179,289.876,37.704
		 M292.312,36.296c0.121-0.146,0.181-0.348,0.181-0.608v-6.112c0-0.26-0.06-0.462-0.181-0.608c-0.122-0.145-0.291-0.218-0.504-0.218
		s-0.38,0.074-0.502,0.218c-0.122,0.146-0.185,0.348-0.185,0.608v6.112c0,0.26,0.063,0.462,0.185,0.608
		c0.122,0.146,0.289,0.218,0.502,0.218S292.189,36.442,292.312,36.296"/>
	<g>
		<path style="fill-rule:evenodd;clip-rule:evenodd;fill:#0D72B9;" d="M94.598,13.476v34.162c0,4.803-3.929,8.732-8.733,8.732
			c-4.804,0-8.735-3.929-8.735-8.732V30.945c0-4.805-3.928-8.733-8.732-8.733h-7.154c-4.805,0-8.733-3.93-8.733-8.734
			c0-4.802,3.929-8.733,8.733-8.733h24.622C90.667,4.744,94.598,8.676,94.598,13.476z"/>
		<path style="fill-rule:evenodd;clip-rule:evenodd;fill:#6C9C40;" d="M46.466,92.272H12.304c-4.803,0-8.731-3.929-8.731-8.734
			s3.929-8.732,8.731-8.732h16.695c4.803,0,8.732-3.929,8.732-8.734v-7.154c0-4.804,3.931-8.733,8.733-8.733
			c4.804,0,8.734,3.929,8.734,8.733v24.621C55.199,88.344,51.269,92.272,46.466,92.272z"/>
		<path style="fill-rule:evenodd;clip-rule:evenodd;fill:#E82E2F;" d="M24.456,26.1h34.16c4.803,0,8.733,3.929,8.733,8.732
			c0,4.805-3.931,8.733-8.733,8.733H41.923c-4.805,0-8.732,3.931-8.732,8.735v7.155c0,4.803-3.932,8.731-8.733,8.731
			c-4.803,0-8.733-3.929-8.733-8.731V34.832C15.724,30.03,19.654,26.1,24.456,26.1z"/>
	</g>
</g>
</svg>
